<svg width="167" height="201" viewBox="0 0 167 201" fill="none" xmlns="http://www.w3.org/2000/svg">
<path d="M110.262 88.627H88.9349C86.7561 88.627 84.7352 87.5144 83.5669 85.6818C78.8985 78.3547 67.4447 59.325 69.0687 51.3557C71.254 40.6424 100.992 21.3581 100.992 21.3581C100.992 21.3581 128.228 40.3472 130.179 50.4475C131.756 58.605 120.304 78.1455 115.658 85.6348C114.503 87.4982 112.459 88.627 110.262 88.627Z" stroke="#2A2A2A" stroke-opacity="0.2" stroke-width="1.33333" stroke-miterlimit="10" stroke-linecap="round" stroke-linejoin="round"/>
<path d="M102.97 85.1366L84.4994 95.7656C82.6135 96.8506 80.3029 96.8943 78.3731 95.8889C70.6537 91.8701 51.1877 81.0968 48.5973 73.387C45.1151 63.0207 61.1949 31.4986 61.1949 31.4986C61.1949 31.4986 94.3081 34.3723 101.064 42.147C106.522 48.4249 106.406 71.0549 106.143 79.8562C106.077 82.0455 104.872 84.0419 102.97 85.1366Z" stroke="#2A2A2A" stroke-opacity="0.2" stroke-width="1.33333" stroke-miterlimit="10" stroke-linecap="round" stroke-linejoin="round"/>
<path d="M94.9028 85.7477L84.2382 104.156C83.1496 106.036 81.1726 107.225 78.9954 107.317C70.2949 107.684 48.0318 108.055 41.9201 102.668C33.7045 95.4248 31.8153 60.1142 31.8153 60.1142C31.8153 60.1142 61.9344 46.1006 71.6861 49.4658C79.5617 52.1838 90.8153 71.8412 95.002 79.5948C96.0418 81.5231 96.0011 83.8519 94.9028 85.7477Z" stroke="#2A2A2A" stroke-opacity="0.2" stroke-width="1.33333" stroke-miterlimit="10" stroke-linecap="round" stroke-linejoin="round"/>
<path d="M88.2232 90.2975V111.554C88.2232 113.725 87.1053 115.74 85.2682 116.904C77.9166 121.557 58.8216 132.972 50.8273 131.354C40.0781 129.176 20.7292 99.5366 20.7292 99.5366C20.7292 99.5366 39.7819 72.3917 49.916 70.4472C58.1008 68.8757 77.7067 80.2912 85.221 84.9197C87.0907 86.0712 88.2232 88.1081 88.2232 90.2975Z" stroke="#2A2A2A" stroke-opacity="0.2" stroke-width="1.33333" stroke-miterlimit="10" stroke-linecap="round" stroke-linejoin="round"/>
<path d="M84.721 97.566L95.3855 115.975C96.4741 117.854 96.5181 120.155 95.5092 122.08C91.4771 129.774 80.6677 149.175 72.9321 151.757C62.5295 155.228 30.9036 139.201 30.9036 139.201C30.9036 139.201 33.7869 106.199 41.586 99.4651C47.8865 94.0241 70.5922 94.1408 79.4229 94.4036C81.6196 94.4701 83.6226 95.6701 84.721 97.566Z" stroke="#2A2A2A" stroke-opacity="0.2" stroke-width="1.33333" stroke-miterlimit="10" stroke-linecap="round" stroke-linejoin="round"/>
<path d="M85.3345 105.606L103.805 116.235C105.691 117.32 106.883 119.291 106.974 121.459C107.344 130.132 107.715 152.321 102.311 158.412C95.0439 166.601 59.6136 168.483 59.6136 168.483C59.6136 168.483 45.5548 138.465 48.9312 128.745C51.6583 120.896 71.3798 109.68 79.161 105.507C81.0957 104.471 83.4323 104.512 85.3345 105.606Z" stroke="#2A2A2A" stroke-opacity="0.2" stroke-width="1.33333" stroke-miterlimit="10" stroke-linecap="round" stroke-linejoin="round"/>
<path d="M89.8988 112.262H111.226C113.403 112.262 115.426 113.377 116.593 115.207C121.263 122.535 132.716 141.566 131.091 149.534C128.907 160.247 99.1688 179.531 99.1688 179.531C99.1688 179.531 71.9331 160.542 69.9804 150.442C68.4053 142.284 79.8574 122.744 84.503 115.255C85.6583 113.391 87.7021 112.262 89.8988 112.262Z" stroke="#2A2A2A" stroke-opacity="0.2" stroke-width="1.33333" stroke-miterlimit="10" stroke-linecap="round" stroke-linejoin="round"/>
<path d="M97.1913 115.754L115.663 105.125C117.549 104.04 119.858 103.996 121.788 105.001C129.507 109.02 148.973 119.793 151.564 127.503C155.046 137.871 138.968 169.392 138.968 169.392C138.968 169.392 105.853 166.518 99.0967 158.745C93.6392 152.465 93.7547 129.835 94.0199 121.034C94.085 118.845 95.2891 116.848 97.1913 115.754V115.754Z" stroke="#2A2A2A" stroke-opacity="0.2" stroke-width="1.33333" stroke-miterlimit="10" stroke-linecap="round" stroke-linejoin="round"/>
<path d="M105.259 115.143L115.923 96.734C117.012 94.8544 118.989 93.6657 121.164 93.5749C129.866 93.2067 152.13 92.837 158.241 98.2228C166.457 105.466 168.346 140.776 168.346 140.776C168.346 140.776 138.227 154.79 128.475 151.425C120.6 148.706 109.346 129.051 105.159 121.296C104.12 119.367 104.16 117.038 105.259 115.143Z" stroke="#2A2A2A" stroke-opacity="0.2" stroke-width="1.33333" stroke-miterlimit="10" stroke-linecap="round" stroke-linejoin="round"/>
<path d="M111.937 110.593V89.3368C111.937 87.1653 113.055 85.151 114.892 83.9866C122.244 79.3338 141.339 67.9182 149.333 69.5384C160.082 71.7148 179.431 101.354 179.431 101.354C179.431 101.354 160.38 128.499 150.246 130.443C142.061 132.015 122.455 120.599 114.939 115.971C113.07 114.819 111.937 112.783 111.937 110.593Z" stroke="#2A2A2A" stroke-opacity="0.2" stroke-width="1.33333" stroke-miterlimit="10" stroke-linecap="round" stroke-linejoin="round"/>
<path d="M115.439 103.325L104.775 84.9145C103.686 83.0349 103.642 80.7336 104.651 78.8102C108.685 71.1166 119.493 51.7139 127.228 49.132C137.631 45.6631 169.257 61.6877 169.257 61.6877C169.257 61.6877 166.375 94.692 158.574 101.426C152.274 106.865 129.568 106.75 120.737 106.485C118.541 106.421 116.539 105.22 115.439 103.325Z" stroke="#2A2A2A" stroke-opacity="0.2" stroke-width="1.33333" stroke-miterlimit="10" stroke-linecap="round" stroke-linejoin="round"/>
<path d="M114.826 95.2843L96.3559 84.6554C94.47 83.5704 93.2773 81.6 93.1862 79.4317C92.8184 70.7585 92.4458 48.5696 97.8497 42.4783C105.117 34.29 140.547 32.4072 140.547 32.4072C140.547 32.4072 154.606 62.4259 151.229 72.1451C148.502 79.996 128.781 91.2105 121.001 95.3833C119.065 96.4196 116.73 96.379 114.826 95.2843Z" stroke="#2A2A2A" stroke-opacity="0.2" stroke-width="1.33333" stroke-miterlimit="10" stroke-linecap="round" stroke-linejoin="round"/>
<path d="M199.338 100.445C199.338 45.8095 154.898 1.51771 100.08 1.51771C45.2617 1.51771 0.821777 45.8095 0.821777 100.445C0.821777 155.08 45.2617 199.372 100.08 199.372C154.898 199.372 199.338 155.08 199.338 100.445Z" stroke="#2A2A2A" stroke-opacity="0.2" stroke-width="1.33333" stroke-miterlimit="10" stroke-linecap="round" stroke-linejoin="round"/>
<path d="M100.993 21.3575V1.51855" stroke="#2A2A2A" stroke-opacity="0.2" stroke-width="1.33333" stroke-miterlimit="10" stroke-linecap="round" stroke-linejoin="round"/>
<path d="M99.1681 179.532V199.371" stroke="#2A2A2A" stroke-opacity="0.2" stroke-width="1.33333" stroke-miterlimit="10" stroke-linecap="round" stroke-linejoin="round"/>
<path d="M20.7286 99.5361H0.823242" stroke="#2A2A2A" stroke-opacity="0.2" stroke-width="1.33333" stroke-miterlimit="10" stroke-linecap="round" stroke-linejoin="round"/>
<path d="M50.8624 51.5762L30.6692 31.4518" stroke="#2A2A2A" stroke-opacity="0.2" stroke-width="1.33333" stroke-miterlimit="10" stroke-linecap="round" stroke-linejoin="round"/>
<path d="M148.152 149.762L170.179 171.716" stroke="#2A2A2A" stroke-opacity="0.2" stroke-width="1.33333" stroke-miterlimit="10" stroke-linecap="round" stroke-linejoin="round"/>
<path d="M148.763 54.0166L170.79 32.0613" stroke="#2A2A2A" stroke-opacity="0.2" stroke-width="1.33333" stroke-miterlimit="10" stroke-linecap="round" stroke-linejoin="round"/>
<path d="M50.8624 148.542L29.4454 169.888" stroke="#2A2A2A" stroke-opacity="0.2" stroke-width="1.33333" stroke-miterlimit="10" stroke-linecap="round" stroke-linejoin="round"/>
</svg>
