<svg width="30" height="30" viewBox="0 0 30 30" fill="none" xmlns="http://www.w3.org/2000/svg">
<path d="M18.1875 27L15.0625 30L11.9375 27H4.11719C3.29046 27 2.49759 26.6847 1.913 26.1235C1.32842 25.5623 1 24.8012 1 24.0075V2.9925C1 1.3395 2.39531 0 4.11719 0H26.0078C27.7297 0 29.125 1.3395 29.125 2.9925V24.0075C29.125 24.8012 28.7966 25.5623 28.212 26.1235C27.6274 26.6847 26.8345 27 26.0078 27H18.1875ZM26 24V3H4.125V24H13.2312L15.0625 25.758L16.8938 24H26ZM8.76875 22.77C7.80779 22.3704 6.89118 21.8789 6.03281 21.303C7.02385 19.8285 8.38432 18.6163 9.98968 17.7772C11.595 16.9381 13.394 16.4989 15.2219 16.5C18.9719 16.5 22.2797 18.3105 24.25 21.0705C23.4081 21.6684 22.5056 22.1835 21.5562 22.608C20.8327 21.645 19.8809 20.8609 18.7795 20.3206C17.6782 19.7802 16.4588 19.4989 15.2219 19.5C12.5422 19.5 10.175 20.796 8.76875 22.77ZM15.0625 15C14.3443 15 13.6332 14.8642 12.9697 14.6004C12.3062 14.3365 11.7033 13.9498 11.1955 13.4623C10.6877 12.9748 10.2849 12.396 10.01 11.7591C9.7352 11.1221 9.59375 10.4394 9.59375 9.75C9.59375 9.06056 9.7352 8.37787 10.01 7.74091C10.2849 7.10395 10.6877 6.5252 11.1955 6.03769C11.7033 5.55018 12.3062 5.16347 12.9697 4.89963C13.6332 4.6358 14.3443 4.5 15.0625 4.5C16.5129 4.5 17.9039 5.05312 18.9295 6.03769C19.9551 7.02226 20.5312 8.35761 20.5312 9.75C20.5312 11.1424 19.9551 12.4777 18.9295 13.4623C17.9039 14.4469 16.5129 15 15.0625 15ZM15.0625 12C15.6841 12 16.2802 11.7629 16.7198 11.341C17.1593 10.919 17.4062 10.3467 17.4062 9.75C17.4062 9.15326 17.1593 8.58097 16.7198 8.15901C16.2802 7.73705 15.6841 7.5 15.0625 7.5C14.4409 7.5 13.8448 7.73705 13.4052 8.15901C12.9657 8.58097 12.7188 9.15326 12.7188 9.75C12.7188 10.3467 12.9657 10.919 13.4052 11.341C13.8448 11.7629 14.4409 12 15.0625 12Z" fill="white"/>
</svg>
